PathFileType	4	(X/Y/Z)	9_coords_data.trc
DataRate	CameraRate	NumFrames	NumMarkers	Units	OrigDataRate	OrigDataStartFrame	OrigNumFrames
30.0	30.0	6	21	m	30.0	23	56
Frame#	Time	THUMB_TIP	THUMB_IP	THUMB_MCP	THUMB_CMC	INDEX_TIP	INDEX_DIP	INDEX_PIP	INDEX_MCP	MIDDLE_TIP	MIDDLE_DIP	MIDDLE_PIP	MIDDLE_MCP	RING_TIP	RING_DIP	RING_PIP	RING_MCP	PINKY_TIP	PINKY_DIP	PINKY_PIP	PINKY_MCP	WRIST
X1	Y1	Z1	X2	Y2	Z2	X3	Y3	Z3	X4	Y4	Z4	X5	Y5	Z5	X6	Y6	Z6	X7	Y7	Z7	X8	Y8	Z8	X9	Y9	Z9	X10	Y10	Z10	X11	Y11	Z11	X12	Y12	Z12	X13	Y13	Z13	X14	Y14	Z14	X15	Y15	Z15	X16	Y16	Z16	X17	Y17	Z17	X18	Y18	Z18	X19	Y19	Z19	X20	Y20	Z20	X21	Y21	Z21
22	0.7333333333333333	0.04040800094604492	-0.004262030124664307	1.0281199951171875	0.026443099975585936	-0.018456100463867187	1.04381005859375	0.000805684983730316	-0.02459189987182617	1.0590400390625	-0.018670799255371094	-0.010222800254821777	1.0738499755859374	-0.00369707989692688	-0.04434059906005859	0.932010009765625	-0.0062896599769592275	-0.039615699768066406	0.95418798828125	-0.011793700218200684	-0.03483340072631836	0.9759849853515625	-0.02065399932861328	-0.024947900772094727	1.015260009765625	0.024350200653076172	-0.0077607898712158205	1.03572998046875	0.026717399597167967	-0.004228370189666748	1.0150499877929688	0.010308699607849121	-0.000857758998870849	0.9900139770507812	-0.02845590019226074	-0.003488970041275024	1.0095399780273437	0.02621780014038086	0.001779189944267273	1.0401500244140625	0.025479700088500975	0.012537099838256837	1.02272998046875	0.008841819763183593	0.024872900009155274	1.0024000244140625	-0.027578899383544922	0.019607099533081054	1.0186799926757812	0.00023791100084781603	0.07641639709472656	0.9863510131835938	-0.006063379764556885	0.06533940124511718	1.002260009765625	-0.01286970043182373	0.05474649810791016	1.0156900024414062	-0.0203474006652832	0.0353046989440918	1.0356099853515626	-0.05371110153198242	-0.002026649951934814	1.09522998046875
23	0.7666666666666667	0.041174198150634764	-0.005012110233306884	1.028	0.02654949951171875	-0.018749300003051757	1.043760009765625	0.0010364700555801389	-0.024956600189208984	1.058780029296875	-0.019110700607299805	-0.010676300048828125	1.073719970703125	-0.002824589967727661	-0.04473469924926758	0.9321160278320313	-0.005823609828948975	-0.04013040161132812	0.9542130126953124	-0.011697099685668946	-0.03544449996948242	0.9759810180664062	-0.02068910026550293	-0.025664100646972655	1.01522998046875	0.02539739990234375	-0.008094340324401856	1.035469970703125	0.026821300506591796	-0.004699930191040039	1.0145399780273439	0.010215200424194337	-0.001479200005531311	0.98964501953125	-0.028416099548339843	-0.004125730037689209	1.009489990234375	0.026708099365234376	0.001625970005989074	1.039739990234375	0.025641300201416015	0.012046899795532227	1.0221799926757813	0.008675020217895507	0.024166099548339842	1.001739990234375	-0.02773080062866211	0.018943199157714842	1.018489990234375	0.001908049941062927	0.07497080230712891	0.9859450073242187	-0.005077630043029785	0.06435500335693359	1.0018099975585937	-0.012528599739074707	0.05403749847412109	1.0153099975585937	-0.020684499740600586	0.0349379997253418	1.0353900146484376	-0.05366249847412109	-0.00237568998336792	1.09502001953125
24	0.8	0.04378969955444336	-0.006887290000915527	1.027800048828125	0.026903400421142577	-0.018961599349975586	1.04368994140625	0.0010590900182723998	-0.02497599983215332	1.0588299560546874	-0.018464500427246094	-0.010323800086975098	1.0733900146484374	0.000582848012447357	-0.043801799774169925	0.9329459838867188	-0.004156909942626953	-0.039876399993896486	0.9547130126953125	-0.011319600105285644	-0.03566109848022461	0.97614599609375	-0.021071800231933592	-0.02638249969482422	1.0153699951171875	0.027161199569702147	-0.008133990287780762	1.0350899658203125	0.027658899307250975	-0.004854310035705567	1.0133900146484376	0.010290900230407714	-0.0019545400142669672	0.9893309936523438	-0.02828219985961914	-0.004747459888458252	1.0094000244140624	0.028602699279785156	0.0015527299642562862	1.0388699951171876	0.026062799453735352	0.011865400314331054	1.0213699951171875	0.008220879554748536	0.023532899856567382	1.0009299926757813	-0.027862100601196288	0.018427799224853516	1.01825	0.0065149497985839844	0.07230789947509765	0.9862160034179688	-0.002504930019378662	0.06285520172119141	1.0016599731445313	-0.011659799575805664	0.053295299530029296	1.01502001953125	-0.021583799362182618	0.03493109893798828	1.034989990234375	-0.053965900421142576	-0.0023091700077056882	1.095449951171875
25	0.8333333333333334	0.0469640007019043	-0.009034310340881348	1.028530029296875	0.027529899597167968	-0.018902299880981445	1.0446500244140624	0.001595919966697692	-0.024712299346923827	1.0590400390625	-0.018818599700927734	-0.009864469528198243	1.073280029296875	0.007358630180358886	-0.04054489898681641	0.9350809936523438	-0.00034329301118850704	-0.037873199462890625	0.9560449829101563	-0.009929180145263672	-0.03482049942016602	0.97685302734375	-0.02153380012512207	-0.026817499160766603	1.015719970703125	0.03444079971313477	-0.0057866997718811035	1.0304599609375	0.029475700378417968	-0.003241420030593872	1.0099400024414062	0.009146739959716797	-0.001323109984397888	0.9878170166015625	-0.02866790008544922	-0.004972099781036377	1.0098599853515624	0.03536759948730469	0.0037173900604248037	1.0356500244140625	0.027944599151611328	0.013643600463867188	1.018219970703125	0.007052440166473389	0.023820499420166015	0.99964501953125	-0.02869459915161133	0.018127399444580077	1.018219970703125	0.011911100387573242	0.06858940124511718	0.9875139770507813	0.000328929990530014	0.06098270034790039	1.002010009765625	-0.011085800170898438	0.0527677001953125	1.0148900146484374	-0.023378700256347657	0.0356963996887207	1.0344100341796876	-0.0537671012878418	-0.002135580062866211	1.0948499755859376
26	0.8666666666666667	0.049522899627685545	-0.009249210357666016	1.03052001953125	0.02883449935913086	-0.01747949981689453	1.0454300537109376	0.0032221999168395993	-0.023264699935913086	1.0599300537109375	-0.018662099838256837	-0.00847408962249756	1.0731199951171875	0.015736399650573732	-0.03589279937744141	0.9386489868164063	0.005067059993743896	-0.03464780044555664	0.9584119873046875	-0.007011680126190184	-0.032942699432373046	0.9779249877929688	-0.02143709945678711	-0.02650589942932129	1.016280029296875	0.050254100799560546	-0.000502515971660614	1.01575	0.03430490112304688	0.00042398801445961	0.999864013671875	0.007494589805603027	0.0005941280126571651	0.9855170288085937	-0.028496299743652344	-0.004459519863128662	1.0106300048828125	0.047455299377441404	0.012377699851989747	1.0232999877929687	0.03200809860229492	0.01967449951171875	1.0106799926757812	0.005363949775695801	0.025736499786376953	0.997552978515625	-0.029170000076293945	0.0185137996673584	1.0184099731445313	0.014896599769592286	0.06684629821777344	0.9898610229492187	0.001220770001411438	0.06078860092163086	1.0028699951171876	-0.011927200317382812	0.053556598663330075	1.0148300170898437	-0.025658899307250977	0.03730059814453125	1.03406005859375	-0.054005500793457034	-0.0018819500207901002	1.0951300048828125
27	0.9	0.05242509841918945	-0.009994420051574707	1.031760009765625	0.029897300720214844	-0.015917200088500977	1.0463900146484375	0.003999870061874389	-0.021164199829101563	1.0604000244140626	-0.018896900177001952	-0.006635749816894531	1.07356005859375	0.025805500030517577	-0.02812820053100586	0.9442329711914063	0.012092900276184083	-0.029051000595092774	0.9619030151367187	-0.002888220071792602	-0.029299400329589845	0.9794559936523437	-0.02052779960632324	-0.025122900009155274	1.0168099975585938	0.05736529922485351	0.007260359764099121	0.9987559814453125	0.036352100372314455	0.005768959999084473	0.9903350219726562	0.006297379970550537	0.003617340087890625	0.9840889892578125	-0.027905799865722655	-0.0031313099861145018	1.0114099731445312	0.05229180145263672	0.023085800170898438	1.012219970703125	0.03268999862670898	0.02709160041809082	1.0041099853515625	0.003213740110397339	0.02878219985961914	0.9964719848632813	-0.029948299407958984	0.019603399276733397	1.0188099975585938	0.016692100524902345	0.06537889862060547	0.9924130249023437	0.001352620005607605	0.060922901153564454	1.0035800170898437	-0.013421799659729004	0.05452980041503906	1.01452001953125	-0.028211599349975587	0.03923270034790039	1.0336099853515626	-0.053909801483154295	-0.0008718510270118711	1.0951400146484376
